<svg xmlns="http://www.w3.org/2000/svg" viewBox="0 0 379.38 378.11"><defs><style>.cls-1,.cls-2{fill:none;stroke:#000;stroke-linecap:round;stroke-linejoin:round;}.cls-1{stroke-width:0.45px;}.cls-2{stroke-width:1.82px;}.cls-3{fill:#fff;}</style></defs><g id="Layer_2" data-name="Layer 2"><g id="Layer_4" data-name="Layer 4"><path d="M371.74,149.28v-.23H4.68V367c0,7.27,3.64,10.86,10.87,10.86H360.92c7.23,0,10.82-3.59,10.82-10.86Zm-21,35.91v3.32H28.41v-3.32Zm0,36.36v3.32H28.41v-3.32Zm0,37.73v3.41H28.41v-3.41Zm0,39.46v3.36H247.51v61.28h-3.36V302.1h-108v61.28h-3.37V302.1H28.41v-3.36Z"/><path class="cls-1" d="M371.74,149.05V367c0,7.27-3.59,10.86-10.82,10.86H15.55c-7.23,0-10.87-3.59-10.87-10.86v-218"/><path d="M295.65,148.51l35.82-35.82H280l-35.82,35.82Z"/><path d="M378.47,148.51V112.69l-35.82,35.82Z"/><path d="M184.55,112.69l-35.82,35.82h47l35.81-35.82Z"/><path d="M17,134.73l22.09-22H17Z"/><path d="M97.23,148.51l35.87-35.82h-47L50.23,148.51Z"/><line class="cls-2" x1="331.47" y1="112.69" x2="279.97" y2="112.69"/><line class="cls-2" x1="295.65" y1="148.51" x2="331.47" y2="112.69"/><polyline class="cls-2" points="342.65 148.51 378.47 148.51 378.47 112.69"/><line class="cls-2" x1="331.47" y1="112.69" x2="378.47" y2="112.69"/><line class="cls-2" x1="378.47" y1="112.69" x2="342.65" y2="148.51"/><line class="cls-2" x1="148.73" y1="148.51" x2="184.55" y2="112.69"/><line class="cls-2" x1="148.73" y1="148.51" x2="195.74" y2="148.51"/><line class="cls-2" x1="244.15" y1="148.51" x2="279.97" y2="112.69"/><line class="cls-2" x1="279.97" y1="112.69" x2="231.55" y2="112.69"/><line class="cls-2" x1="244.15" y1="148.51" x2="195.74" y2="148.51"/><line class="cls-2" x1="195.74" y1="148.51" x2="231.55" y2="112.69"/><line class="cls-2" x1="231.55" y1="112.69" x2="184.55" y2="112.69"/><polyline class="cls-2" points="17 134.73 17 148.51 50.23 148.51"/><line class="cls-2" x1="17" y1="134.73" x2="39.09" y2="112.69"/><polyline class="cls-2" points="39.09 112.69 17 112.69 17 134.73"/><line class="cls-2" x1="97.23" y1="148.51" x2="133.1" y2="112.69"/><line class="cls-2" x1="133.1" y1="112.69" x2="86.05" y2="112.69"/><line class="cls-2" x1="50.23" y1="148.51" x2="86.05" y2="112.69"/><line class="cls-2" x1="86.05" y1="112.69" x2="39.09" y2="112.69"/><line class="cls-2" x1="50.23" y1="148.51" x2="97.23" y2="148.51"/><line class="cls-2" x1="184.55" y1="112.69" x2="133.1" y2="112.69"/><line class="cls-2" x1="97.23" y1="148.51" x2="148.73" y2="148.51"/><line class="cls-2" x1="295.65" y1="148.51" x2="244.15" y2="148.51"/><line class="cls-2" x1="342.65" y1="148.51" x2="295.65" y2="148.51"/><path d="M367.79,35.82,359.65.91,324.83,9.05Z"/><path d="M279.1,19.73,229,31.36l43,26.73,50.09-11.63Z"/><path d="M181.87,42.37,136.1,53.05l43,26.73,45.78-10.69Z"/><path d="M11.09,96.32l5,21.46,21.41-5Z"/><path d="M83.23,102.14,129,91.41,86,64.68,40.32,75.37Z"/><line class="cls-2" x1="322.06" y1="46.46" x2="271.97" y2="58.09"/><line class="cls-2" x1="367.79" y1="35.82" x2="322.06" y2="46.46"/><line class="cls-2" x1="367.79" y1="35.82" x2="324.83" y2="9.05"/><line class="cls-2" x1="229.01" y1="31.36" x2="279.1" y2="19.73"/><line class="cls-2" x1="229.01" y1="31.36" x2="271.97" y2="58.09"/><line class="cls-2" x1="271.97" y1="58.09" x2="224.83" y2="69.09"/><line class="cls-2" x1="136.1" y1="53.05" x2="181.87" y2="42.37"/><line class="cls-2" x1="224.83" y1="69.09" x2="179.05" y2="79.78"/><line class="cls-2" x1="179.05" y1="79.78" x2="136.1" y2="53.05"/><line class="cls-2" x1="224.83" y1="69.09" x2="181.87" y2="42.37"/><line class="cls-2" x1="181.87" y1="42.37" x2="229.01" y2="31.36"/><polyline class="cls-2" points="11.09 96.32 7.96 82.91 40.32 75.37"/><polyline class="cls-2" points="37.5 112.73 16.09 117.78 11.09 96.32"/><line class="cls-2" x1="37.5" y1="112.73" x2="11.09" y2="96.32"/><line class="cls-2" x1="129.01" y1="91.41" x2="83.23" y2="102.14"/><line class="cls-2" x1="40.32" y1="75.37" x2="86" y2="64.68"/><line class="cls-2" x1="86" y1="64.68" x2="129.01" y2="91.41"/><line class="cls-2" x1="40.32" y1="75.37" x2="83.23" y2="102.14"/><line class="cls-2" x1="83.23" y1="102.14" x2="37.5" y2="112.73"/><line class="cls-2" x1="179.05" y1="79.78" x2="129.01" y2="91.41"/><line class="cls-2" x1="86" y1="64.68" x2="136.1" y2="53.05"/><line class="cls-2" x1="279.1" y1="19.73" x2="324.83" y2="9.05"/><line class="cls-2" x1="279.1" y1="19.73" x2="322.06" y2="46.46"/><polyline class="cls-2" points="324.83 9.05 359.65 0.91 367.79 35.82"/><path d="M23.73,77.87H.23v72.77H58.41V128.69ZM17.32,88.19a4.07,4.07,0,0,1-1.18,2.86,4.13,4.13,0,0,1-5.78,0,4.07,4.07,0,0,1-1.18-2.86,4.15,4.15,0,0,1,1.18-2.91,3.9,3.9,0,0,1,2.87-1.19,3.92,3.92,0,0,1,2.91,1.19A4.15,4.15,0,0,1,17.32,88.19ZM7.55,138.73a4,4,0,0,1,4.09-4.09,3.84,3.84,0,0,1,2.86,1.18,4,4,0,0,1,1.23,2.91,3.75,3.75,0,0,1-1.23,2.82,3.75,3.75,0,0,1-2.86,1.27,3.84,3.84,0,0,1-2.91-1.27A3.7,3.7,0,0,1,7.55,138.73Zm38.22,4.09a3.82,3.82,0,0,1-2.9-1.27,3.71,3.71,0,0,1-1.19-2.82,4,4,0,0,1,4.09-4.09,3.85,3.85,0,0,1,2.87,1.18,4,4,0,0,1,1.23,2.91,4.28,4.28,0,0,1-4.1,4.09Z"/><path class="cls-3" d="M16.14,91.05a4.07,4.07,0,0,0,1.18-2.86,4.15,4.15,0,0,0-1.18-2.91,3.92,3.92,0,0,0-2.91-1.19,3.9,3.9,0,0,0-2.87,1.19,4.15,4.15,0,0,0-1.18,2.91,4,4,0,0,0,4.05,4A4.12,4.12,0,0,0,16.14,91.05Z"/><path class="cls-3" d="M8.73,135.82a3.91,3.91,0,0,0-1.18,2.91,3.7,3.7,0,0,0,1.18,2.82,3.84,3.84,0,0,0,2.91,1.27,3.75,3.75,0,0,0,2.86-1.27,3.75,3.75,0,0,0,1.23-2.82,4,4,0,0,0-1.23-2.91,3.84,3.84,0,0,0-2.86-1.18A3.94,3.94,0,0,0,8.73,135.82Z"/><path class="cls-3" d="M42.87,141.55a3.82,3.82,0,0,0,2.9,1.27,4.28,4.28,0,0,0,4.1-4.09,4,4,0,0,0-1.23-2.91,3.85,3.85,0,0,0-2.87-1.18,4,4,0,0,0-4.09,4.09A3.71,3.71,0,0,0,42.87,141.55Z"/><path class="cls-1" d="M17.32,88.19a4.15,4.15,0,0,0-1.18-2.91,3.92,3.92,0,0,0-2.91-1.19,3.9,3.9,0,0,0-2.87,1.19,4.15,4.15,0,0,0-1.18,2.91,4,4,0,0,0,4.05,4,4.12,4.12,0,0,0,2.91-1.18,4.07,4.07,0,0,0,1.18-2.86"/><polyline class="cls-1" points="0.23 77.87 0.23 150.64 58.41 150.64 58.41 128.69 23.73 77.87 0.23 77.87"/><path class="cls-1" d="M7.55,138.73a3.7,3.7,0,0,0,1.18,2.82,3.84,3.84,0,0,0,2.91,1.27,3.75,3.75,0,0,0,2.86-1.27,3.75,3.75,0,0,0,1.23-2.82,4,4,0,0,0-1.23-2.91,3.84,3.84,0,0,0-2.86-1.18,4,4,0,0,0-4.09,4.09"/><path class="cls-1" d="M45.77,142.82a4.28,4.28,0,0,0,4.1-4.09,4,4,0,0,0-1.23-2.91,3.85,3.85,0,0,0-2.87-1.18,4,4,0,0,0-4.09,4.09,3.71,3.71,0,0,0,1.19,2.82,3.82,3.82,0,0,0,2.9,1.27"/></g></g></svg>