<svg xmlns="http://www.w3.org/2000/svg" fill="none" viewBox="0 0 24 24" id="Google-Adsense-Logo--Streamline-Logos.svg"><desc>Google Adsense Logo Streamline Icon: https://streamlinehq.com</desc><path fill="#000000" fill-rule="evenodd" d="M21.9033 9.3031C23.6885 10.3443 24.2916 12.6356 23.2503 14.4207L19.5086 20.835C18.0573 23.3232 14.4567 23.3073 13.0275 20.8063C12.3642 19.6456 12.3705 18.2192 13.044 17.0644L16.7857 10.6501C17.8268 8.8649 20.1181 8.2618 21.9033 9.3031Z" clip-rule="evenodd" stroke-width="1"></path><path fill="#000000" d="M0.24 18.9492C0.24 21.8295 3.3581 23.6298 5.8525 22.1896C7.0102 21.5212 7.7234 20.286 7.7234 18.9492C7.7234 16.0688 4.6053 14.2686 2.1108 15.7088C0.9532 16.3772 0.24 17.6124 0.24 18.9492" stroke-width="1"></path><path fill="#000000" fill-rule="evenodd" d="M15.2409 6.9224C16.6811 4.4272 14.8801 1.3086 11.9991 1.309C10.662 1.3092 9.4266 2.0226 8.7582 3.1807L2.253 14.4592C5.1117 13.3587 8.2573 15.174 8.7347 18.1998L15.2409 6.9224Z" clip-rule="evenodd" stroke-width="1"></path></svg>