<svg xmlns="http://www.w3.org/2000/svg" fill="none" viewBox="0 0 24 24" id="Google-Ads-Logo--Streamline-Logos.svg"><desc>Google Ads Logo Streamline Icon: https://streamlinehq.com</desc><path fill="#000000" fill-rule="evenodd" d="M10.1239 1.8015C8.3342 2.8334 7.7204 5.121 8.7533 6.9101L16.7655 20.798C18.181 23.3042 21.7787 23.3383 23.2414 20.8593C23.9327 19.6877 23.9331 18.2331 23.2426 17.0611L15.2303 3.1732C14.1986 1.3848 11.9125 0.7712 10.1239 1.8026ZM7.2416 5.7906C7.3339 6.3728 7.5327 6.933 7.8281 7.4432L11.3748 13.5913L8.7287 18.1785C8.251 15.1554 5.1079 13.342 2.2516 14.4416L7.2416 5.7916ZM3.979 22.6675C6.8573 22.6674 8.6563 19.5514 7.2171 17.0588C6.5491 15.902 5.3148 15.1894 3.979 15.1894C1.1007 15.1894 -0.6982 18.3053 0.7409 20.798C1.4089 21.9549 2.6431 22.6676 3.979 22.6675Z" clip-rule="evenodd" stroke-width="1"></path></svg>