<svg xmlns="http://www.w3.org/2000/svg"  viewBox="0 0 50 50" width="50px" height="50px"><path d="M 15 4 C 8.925 4 4 8.925 4 15 L 4 35 C 4 41.075 8.925 46 15 46 L 35 46 C 41.075 46 46 41.075 46 35 L 46 15 C 46 8.925 41.075 4 35 4 L 15 4 z M 18 11 L 32 11 C 35.309 11 38 13.691 38 17 L 38 18 C 40.209 18 42 19.791 42 22 L 42 28 C 42 30.209 40.209 32 38 32 L 36 32 L 36 33 C 36 35.209 34.209 37 32 37 L 24.351562 37 L 19.625 40.78125 C 19.444 40.92525 19.223 41 19 41 C 18.853 41 18.704406 40.966391 18.566406 40.900391 C 18.219406 40.734391 18 40.384 18 40 L 18 37 C 15.791 37 14 35.209 14 33 L 14 32 L 13 32 L 12 32 C 9.955 32 8.2888281 30.460469 8.0488281 28.480469 C 8.0198281 28.322469 8 28.163 8 28 L 8 22 C 8 19.791 9.791 18 12 18 L 12 17 C 12 13.691 14.691 11 18 11 z M 17 14 C 15.897 14 15 14.897 15 16 L 15 18 L 35 18 L 35 16 C 35 14.897 34.103 14 33 14 L 17 14 z M 13 20 L 13 28 C 13 29.105 13.895 30 15 30 L 21.763672 30 C 22.142672 30 22.489203 29.786266 22.658203 29.447266 L 24.105469 26.552734 C 24.275469 26.213734 24.621 26 25 26 C 25.379 26 25.724531 26.213734 25.894531 26.552734 L 27.341797 29.447266 C 27.510797 29.786266 27.857328 30 28.236328 30 L 35 30 C 36.105 30 37 29.105 37 28 L 37 20 L 35 20 L 13 20 z M 19 22 C 19.55 22 20.050156 22.219844 20.410156 22.589844 C 20.780156 22.949844 21 23.45 21 24 L 21 25.878906 C 21 26.875906 20.324797 27.804703 19.341797 27.970703 C 18.092797 28.180703 17 27.212 17 26 L 17 24.910156 C 17.133 24.960156 17.266156 24.988094 17.410156 24.996094 C 18.159156 25.040094 18.867469 24.486141 18.980469 23.744141 C 19.085469 23.050141 18.735688 22.440688 18.179688 22.179688 C 18.429687 22.060688 18.71 22 19 22 z M 31 22 C 31.55 22 32.050156 22.219844 32.410156 22.589844 C 32.780156 22.949844 33 23.45 33 24 L 33 25.878906 C 33 26.875906 32.324797 27.804703 31.341797 27.970703 C 30.092797 28.180703 29 27.212 29 26 L 29 24.910156 C 29.133 24.960156 29.266156 24.988094 29.410156 24.996094 C 30.159156 25.040094 30.867469 24.486141 30.980469 23.744141 C 31.085469 23.050141 30.735688 22.440688 30.179688 22.179688 C 30.429687 22.060688 30.71 22 31 22 z M 25 29.236328 L 24.171875 30.894531 C 23.832875 31.571531 23.140812 32 22.382812 32 L 16 32 L 16 33 C 16 34.105 16.895 35 18 35 L 19 35 C 19.552 35 20 35.448 20 36 L 20 37.919922 L 23.376953 35.21875 C 23.553953 35.07775 23.773 35 24 35 L 32 35 C 33.105 35 34 34.105 34 33 L 34 32 L 27.617188 32 C 26.859187 32 26.167125 31.572531 25.828125 30.894531 L 25 29.236328 z"/></svg>