<svg xmlns="http://www.w3.org/2000/svg" viewBox="0 0 510.76 420.63"><defs><style>.cls-1{fill:#333;}.cls-2{fill:#dfdfdf;}.cls-3{fill:silver;}.cls-4{fill:#d4d4d4;}.cls-5{fill:#d3d3d3;}.cls-6{fill:#1a1a1a;}.cls-7{fill:#1b1b1b;}</style></defs><g id="Layer_2" data-name="Layer 2"><g id="Layer_2-2" data-name="Layer 2"><path class="cls-1" d="M0,11.08C1.67,8.85,2.91,6.23,5.25,4.59,8.65,2.21,12.23.18,16.54,0c.56,0,1.13,0,1.7,0Q255.38,0,492.52,0c6.59,0,11.69,2.88,16,7.56,1,1.06.63,2.89,2.21,3.52v5.11c-1.78,1.57-1.49,4-2.45,6a43.55,43.55,0,0,0-2.57,6.56c-.66,2.15-1.39,4.23-2.24,6.3-1.57,3.88-2.81,7.9-4.25,11.83-1.66,4.55-3.55,9-5,13.62-2.26,7-5.26,13.69-7.45,20.72-1.19,3.81-2.89,7.56-4.25,11.38s-2.65,7.72-4.23,11.41c-2.67,6.27-4.15,13-7.46,19-.66,4.49-2.87,8.44-4.35,12.64-2.17,6.17-4.51,12.29-6.79,18.42a16.22,16.22,0,0,1-.84,1.63v2.51c-.72.38-1.5.88-2.35,1.25a18.74,18.74,0,0,1-8.72,1.5h-21.3v19.17c-.45.45-.75,1-1.05,1-4.92.06-9.85,0-14.85,0l-1.26-1.19V161.11H101.16V180.2l-1,1H85.45l-1.14-1.14c-.16-6.3.15-12.76-.17-19.18H63c-1.55,0-3.45.55-4.59-.14-1.59-1-3.54-.25-4.9-1.56a7.2,7.2,0,0,0-1.08-.76c-1.43-4.11-2.72-8-4.1-11.78-1.6-4.43-3.26-8.84-4.91-13.25-1.55-4.17-3.12-8.33-4.66-12.51s-3.15-8.6-4.69-12.92c-1-2.71-1.69-5.53-2.83-8.17-2.2-5-3.7-10.36-5.76-15.45C23.55,79.63,22,74.79,20.19,70,16.8,60.79,13.46,51.54,10,42.36c-2.38-6.35-4.3-12.92-7.36-19-.83-1.66-1.16-3.75-1.84-5.6C.72,17.43.28,17.27,0,17ZM23.53,26.54C37.07,68,51,108.93,64.89,149.7h381c3.48-10.32,6.93-20.52,10.35-30.73s6.82-20.44,10.22-30.66,7.12-20.61,10.48-31c3.3-10.21,6.86-20.34,10.23-30.78Z"/><path class="cls-2" d="M63,160.91H84.14c.32,6.42,0,12.88.17,19.18l1.14,1.14h14.68l1-1V161.11H409.31v18.83l1.26,1.19c5,0,9.93,0,14.85,0,.3,0,.6-.56,1.05-1V160.91h21.3c1.43,1.59,4.11,1.07,5.26,3.13,3.89,1.6,5.2,5.22,6.62,8.67a15.8,15.8,0,0,1,.92,6q-.06,112.34-.05,224.66c0,7.11-3,12.33-9.63,15.57a13.61,13.61,0,0,1-6.16,1.6q-189.35,0-378.69.07c-5.26,0-13-4.86-14.94-11.22a18.6,18.6,0,0,1-.92-5.59q.07-112.77.09-225.52c0-7.29,3.39-12.77,10.07-16.17C61.2,161.69,62.81,162.69,63,160.91Zm327.74,58.74c.29-.23.81-.44.82-.67q.07-4.44,0-8.88c0-.23-.53-.45-.82-.67v-.85h2.56c0,3.66,0,7,0,10.4,0,.61-.33,1.51.84,1.52L397,223h8.87l2.75-3.79v-9.82c.22-.28.43-.8.66-.81,1.2,0,2.41.06,3.6.11v10.52l2.64,3.64H431.4a7.19,7.19,0,0,0,1.93-5.38c-.14-3,0-5.95,0-8.93,2.38.38,4.55-.44,6.7-1.19v-8.07H71.7v8.23l5.77,1c0,3.4-.09,6.81,0,10.21a12.3,12.3,0,0,0,.92,3.1L80.75,223H95.14l2.76-3.79v-9.82c.4-1.64,1.71-.53,2.55-.85,0,3.4-.09,6.81,0,10.21a11.9,11.9,0,0,0,.92,3.1l2.31,1.15h14.4l2.75-3.79v-9.82c.4-1.64,1.72-.53,2.55-.85V220l3,3h14.39l3-3V209.43c.86-1.17,1.7-1.17,2.56,0v10.64l3,3h14.45l3-3V209.43c.86-1.17,1.7-1.17,2.55,0v10.64l3,3h14.44l3-3V209.43c.86-1.17,1.7-1.17,2.56,0v10.64l3,3h14.39l3-3v-11.5c.84.32,2.15-.79,2.55.85v9.82l2.76,3.79h14.41l2.61-1.34a45.44,45.44,0,0,0,.62-4.61c.11-2.83,0-5.67,0-8.51.84.32,2.16-.79,2.56.85v9.82l2.75,3.79h14.41l2.61-1.34a42.73,42.73,0,0,0,.63-4.61c.1-2.83,0-5.67,0-8.51.83.32,2.15-.79,2.55.85v9.82L264.1,223h14.41l2.61-1.34a45.44,45.44,0,0,0,.62-4.61c.11-2.83,0-5.67,0-8.51.84.32,2.16-.79,2.55.85v9.82l2.76,3.79h14.41l2.61-1.34a42.73,42.73,0,0,0,.63-4.61c.1-2.83,0-5.67,0-8.51.83.32,2.15-.79,2.55.85v9.82l2.75,3.79h14.42l2.61-1.34a45.44,45.44,0,0,0,.62-4.61c.11-2.83,0-5.67,0-8.51h2.55v10.67c.94,1.28,1.9,2.6,2.76,3.79h14.41l2.61-1.34c.2-1.44.51-3,.63-4.61.11-1.41,0-2.84,0-4.25,1.17-.86,1.17-1.7,0-2.56v-1.7h2.56v10.67l2.64,3.64h16.26c.4-1.44,1.64-2.46,1.53-4.1.14,0,.4,0,.4,0a16.55,16.55,0,0,0,0-8.5s-.26,0-.4,0v-1.7h2.55c0,3.66,0,7,0,10.4,0,.61-.32,1.51.84,1.52l2,2.51h9.5C390.25,221.34,390.25,221.34,390.73,219.65ZM387.33,309l-2.08-2.55c-4,0-7.65.08-11.28,0a8.64,8.64,0,0,0-5.09,1.12l-1.13,2.32c-.28.22-.81.44-.82.67q-.07,4.44,0,8.88c0,.23.54.44.82.67V321c-.33.28-.64.75-1,.81a14.74,14.74,0,0,1-2.4,0V321c.29-.23.82-.44.82-.67q.07-5.29,0-10.58c0-.23-.53-.45-.82-.67-.74-.92-1.49-1.83-2.08-2.55-4,0-7.64.08-11.27,0a8.63,8.63,0,0,0-5.09,1.12c-.46.93-.8,1.63-1.13,2.32-.29.22-.82.44-.82.67q-.07,4.44,0,8.88c0,.23.53.44.82.67V321c-.34.28-.64.75-1,.81a14.76,14.76,0,0,1-2.4,0V321c.28-.23.81-.44.81-.67q.09-5.29,0-10.58c0-.23-.53-.45-.81-.67l-2-2.55c-3.88,0-7.67,0-11.45,0-1.9,0-3.8-.16-5.5,1.56a33.22,33.22,0,0,0-.62,4.07c-.1,2.95,0,5.9,0,8.85-.33.28-.64.75-1,.81a14.64,14.64,0,0,1-2.39,0V309.24c-1-1.39-1.59-2.18-2-2.76-4,0-7.66.07-11.3,0a8.35,8.35,0,0,0-5.15,1.12l-1.12,2.31c-.29.22-.81.44-.82.67q-.08,4.44,0,8.88c0,.23.53.44.82.67V321c-.4,1.64-1.72.52-2.56.85V321c.29-.23.81-.44.82-.67q.07-5.29,0-10.58c0-.23-.53-.45-.82-.67l-2-2.54H182l-2.17,1.11-1.09,2.28c-.29.22-.81.44-.82.67q-.07,4.44,0,8.88c0,.23.53.44.82.67V321c-.34.28-.64.75-1,.81a14.76,14.76,0,0,1-2.4,0V321c.29-.23.81-.44.82-.67q.07-5.29,0-10.58c0-.23-.53-.45-.82-.67-.74-.92-1.49-1.83-2.08-2.55-4,0-7.65.08-11.27,0a8.66,8.66,0,0,0-5.1,1.12l-1.13,2.32c-.28.22-.81.44-.81.67q-.09,4.44,0,8.88c0,.23.53.44.81.67V321c-.33.28-.63.75-1,.81a14.78,14.78,0,0,1-2.4,0V321c.28-.23.81-.44.81-.67q.08-5.29,0-10.58c0-.23-.53-.45-.81-.67l-2-2.55c-3.89,0-7.67,0-11.45,0-1.9,0-3.81-.16-5.5,1.56a33.22,33.22,0,0,0-.62,4.07c-.1,2.95,0,5.9,0,8.85-.34.28-.64.75-1,.81a14.76,14.76,0,0,1-2.4,0V309.24c-1-1.39-1.58-2.18-2-2.76-4,0-7.65.07-11.3,0a8.34,8.34,0,0,0-5.14,1.12l-1.13,2.31c-.28.22-.81.44-.81.67q-.09,4.44,0,8.88c0,.23.53.44.81.67v1.7h-3.4V310.28l-2.76-3.79H80.73l-2.61,1.34a40.71,40.71,0,0,0-.62,4.61c-.11,2.83,0,5.67,0,8.51-.37.28-.74.81-1.1.81-1.79,0-3.52,0-4.67,1.25v8.84H440v-9.13h-5c-.29-.9-.58-1.76-.86-2.62v-9.81l-2.75-3.81H416.77l-3,3V321c-.34.28-.64.75-1,.81a14.76,14.76,0,0,1-2.4,0,20,20,0,0,0,.82-3.05,34.73,34.73,0,0,0,0-3.82c0-.56,0-1.13,0-1.7-.16-2.63-.77-5.07-3-6.74H394l-2.36,1.21c-.3,1-.61,2-.91,3-.14,0-.39,0-.4,0a16.77,16.77,0,0,0,0,8.5,1.68,1.68,0,0,0,.4,0V321c-.33.28-.63.75-1,.81a14.76,14.76,0,0,1-2.4,0V321c.28-.23.81-.44.81-.67q.09-5.29,0-10.58C388.14,309.47,387.61,309.25,387.33,309Zm-88.22,27.24H211.54a8.31,8.31,0,0,0-4.67,7.77c0,20.84,0,41.68,0,62.75l3.64,4.32h89.86l3.54-4.43c0-21.09.05-42.08,0-63.06A7.79,7.79,0,0,0,299.11,336.27Zm22.82,28.16v44.06c15,.61,107.61.36,111.22-.27V364.43ZM124.27,288.81,120.49,286c-12,0-24.09.06-36.13,0-3.15,0-5.66.59-6.89,4.58,0,1.66.12,4.07,0,6.46-.2,3.18.66,5.63,4.48,6.88,11.39,0,23.43-.08,35.47.06a8.14,8.14,0,0,0,6.88-3.07Zm-43.83-5.32h34l3-3V269.64l-2.94-3.16H80.73l-2.14,1.1-1.12,2.14v10.77Zm329.87-3c0-2.57,0-5.12,0-7.66,0-1.92.09-3.82-1.42-5.74a30.89,30.89,0,0,0-4.47-.62c-9.32-.07-18.65,0-28,0-.26,0-.52.11-.09,0l-2.6,2V281.4a6.82,6.82,0,0,0,5.58,2.12c9.33-.07,18.66,0,28,0Zm-4-37,3.13-2.94V228.66l-2.09-2.2H379.27c-1.44,1.3-2.86,2.66-3,4.71-.13,2.26-.43,4.63.09,6.77.45,1.83.25,4.52,3.15,5a19,19,0,0,0,2.75.53C390.36,243.5,398.43,243.48,406.31,243.48Zm-19,57.37V288.8L383.52,286c-6.26,0-12.5.1-18.72,0-3-.07-5.43.62-7.27,3.11v12.06l3.81,2.75c6.27,0,12.5-.1,18.73,0C383,304,385.49,303.35,387.33,300.85ZM80.58,246l-3.19,3.2c.8,4.41-1.47,9.49,2,13.77H104l2.51-2.09c-.66-4.73,1-9.55-1.31-14.2a36.48,36.48,0,0,0-4.78-.64C93.79,246,87.15,246,80.58,246Zm328.88,14.9V249.09c-1-1.05-2-2.07-3-3H388.65a7.54,7.54,0,0,0-3.06,6.87c.2,2.39,0,4.81,0,7.09l2,3h19.74Zm-74.9,40a7.71,7.71,0,0,0,6.86,3.07c3.24-.21,6.5-.05,9.71-.05,2.43-1.52,2.19-1.64,3.05-3.37,1.53-3.1.42-6.31.8-9.44-1.2-1-.32-3.11-1.84-3.88A8.38,8.38,0,0,0,349,286c-3.53.14-7.07,0-10.61,0l-3.79,2.77Zm79.54,1.43a8.48,8.48,0,0,0,5.39,1.62,61.52,61.52,0,0,1,6.79,0c3.3.18,5.93-.6,7-4.16,0-2.21-.11-4.48,0-6.74.19-3.29-.6-5.92-4.17-7-3,0-6.16.12-9.27,0-3.3-.15-5.92.61-7.07,4.35C413.34,294.18,411.86,298.45,414.1,302.33Zm-3.79-2.88c0-1.73-.12-4.14,0-6.53.2-3.17-.65-5.63-4.49-6.88-2.59,0-5.85.13-9.09,0s-5.63.65-6.88,4.51c0,1.73.12,4.14,0,6.53-.19,3.17.66,5.62,4.5,6.87,2.59,0,5.84-.12,9.09,0S409.07,303.31,410.31,299.45Zm-80.53,3.8c3.24-5.5,2.61-10.49,1.14-15.28a5.94,5.94,0,0,0-5-1.94c-3.53.06-7,0-10.54,0l-3.76,2.79v12.09a7.58,7.58,0,0,0,6.91,3c2.25-.19,4.53.05,6.79-.07A44.25,44.25,0,0,0,329.78,303.25ZM309,299.49V291.1l-2.2-4.4c-1.44-.21-3-.55-4.6-.63-2.26-.11-4.54.14-6.78-.07a7.54,7.54,0,0,0-6.84,3.07v12.08l3.78,2.76h13ZM119.89,227.42c-5.63-2-11.64-.46-17.51-1-.73,1.25-1.34,2.28-1.83,3.13V240.6l2.88,2.88c3.46,0,7-.1,10.53,0,3.14.12,5.71-.5,6.93-4.66C120.37,235.72,121.75,231.62,119.89,227.42Zm114-1c-4.78,0-9.33.09-13.86-.06-1.51-.05-2.52.8-3.61,1.19l-1.08,2.18c0,2,.13,4.46,0,6.86-.21,3.19.74,5.6,4.39,6.85h13l3-3v-10.9Zm35.49,77.46h12l3.8-2.76V289.31l-1.11-2.16L281.9,286c-2.95,0-6.21.17-9.46,0a7.69,7.69,0,0,0-6.84,3.07v12.1ZM213.25,286H200.46l-3.82,2.76v12.37l3.82,2.75h11.95l3.81-2.75V289.08Zm10.19,17.88h12l3.81-2.75V289.05l-3-3H223.44l-3.81,2.76v12.37ZM259.05,286c-3.06,0-6.33.17-9.56,0a7.69,7.69,0,0,0-6.86,3.06v12.09l3.78,2.77c3,0,6-.16,8.91.05a7.68,7.68,0,0,0,6.86-3.07V289Zm124-35.36c-1.2-4.06-3.6-4.76-6.59-4.67-3.66.11-7.33,0-10.3,0l-3.67,3.19c.86,4.56-1.45,9.53,2,13.75h15.22l3.34-3ZM148.42,226.55c-2,2.86-2,2.86-2,5.26,0,1.56.09,3.13,0,4.68-.25,3.33.68,5.89,4.25,7,3.15,0,6.41-.09,9.67,0,3,.1,5.42-.61,6.53-4.85,0-1.62-.08-4.31,0-7a6.32,6.32,0,0,0-2.05-5.12Zm23-.08a7.42,7.42,0,0,0-2,5.52c.15,2.54,0,5.1,0,7.14,1.25,3.64,3.66,4.55,6.85,4.39s6.52,0,9.14,0c3.81-1.25,4.67-3.71,4.47-6.88-.15-2.4,0-4.81,0-7.1l-2-3Zm-76.34.14H79.26l-1.66,2.8v11.22l2.85,2.85c3.52,0,7.07-.13,10.6,0,3.19.15,5.59-.76,6.85-4.39v-9.69ZM255.2,243.48l3.59-3.08c0-2.84-.08-5.53,0-8.22a6.66,6.66,0,0,0-2.08-5.64H241.79l-3.36,3.05v10.52l3.54,3.37ZM127.69,300.87a7.71,7.71,0,0,0,6.94,3.1c3-.2,5.92-.05,8.85-.05l3.75-2.78V289.05a7.66,7.66,0,0,0-6.9-3.05c-3,.2-5.92,0-8.85,0l-3.79,2.82Zm23-12.07v12.37l3.81,2.75h11.95l3.81-2.75V288.79L166.44,286H154.49Zm23,.31v12.05l3.8,2.76c2.86,0,5.7-.12,8.52,0,3,.16,5.42-.61,7.26-3.11V288.8L189.43,286c-2.85,0-5.69.13-8.51,0S175.5,286.62,173.66,289.11Zm166-40.05c0,2.8.1,5.63,0,8.46a6.74,6.74,0,0,0,2.15,5.52h15.55c.86-1.16,1.81-2.47,2.77-3.78,0-2.13-.12-4.26,0-6.37.22-3.19-.74-5.6-4.4-6.85h-13ZM139.54,267.7c-2.75-1.86-5.44-1.13-8-1.21-2.83-.1-5.67,0-8.45,0a7.49,7.49,0,0,0-3.07,6.84c.2,2.1,0,4.24,0,6.38,1,1.3,1.91,2.61,2.76,3.79h14.46l3.3-3C140,276.19,141.37,271.8,139.54,267.7Zm24,12.67c-.62-4.22,1-8.77-1-12.74l-2.35-1.15H145.78L143,270.27c0,2.12.16,4.26,0,6.36a7.51,7.51,0,0,0,3.06,6.86h14.44Zm132-17.31h15.8l2.75-3.81V250.4c-1.26-3.66-3.66-4.56-6.85-4.4-3.53.17-7.08,0-10.46,0L293.7,249v10.93C294.34,261,294.89,261.9,295.57,263.06Zm-31.81-17h-13l-3,3v11.93l2.12,2.12h15.55c.85-1.18,1.81-2.49,2.76-3.79,0-2.14.06-4.27,0-6.39C268,250,267.55,247.22,263.76,246Zm-135.71-2.55c2.42,0,5.68-.12,8.93,0s5.63-.68,6.89-4.49c-.51-3.44,1-7.71-1-11.32-2.9-2-5.9-1.09-8.76-1.22s-5.89,0-8.82,0l-1.89,3.24c0,2.32.11,4.6,0,6.86C123.24,239.7,123.91,242.27,128.05,243.48Zm82.89-17c-4.79,0-9.33.09-13.87-.06-1.51-.05-2.52.81-3.6,1.19l-1.08,2.17c0,2.06.12,4.47,0,6.87-.21,3.19.74,5.6,4.38,6.85h10.78c4.9-1.07,5.42-3.75,5.31-6.85-.08-2.4,0-4.81,0-7Zm68.95,0h-15.8l-2.75,3.81v7.91c1.07,4.92,3.76,5.39,6.85,5.32,3.54-.08,7.08,0,10.47,0l3.1-2.95V229.61C281.12,228.53,280.57,227.62,279.89,226.46Zm24.87,14c0-2.8-.11-5.64,0-8.47a6.77,6.77,0,0,0-2.14-5.52H287.09l-2.77,3.79c0,2.13.13,4.26,0,6.37-.23,3.19.73,5.59,4.39,6.85h13.1Zm23-.18c0-2.71-.08-5.68,0-8.65a6.27,6.27,0,0,0-2.06-5.07H310c-.88,1.23-1.73,2.45-2.65,3.75,0,2,.1,4.15,0,6.26-.18,3.13.48,5.71,4.57,6.89h12.95ZM166,270.27v9.41l2.75,3.81H183.3l3.12-2.95V269.73l-1.1-2.15-2.15-1.11H168.75C167.89,267.67,166.93,269,166,270.27Zm42.07-3.21c-5.22-1.28-10.7-.21-16.27-.69L189,270.28v9.41l2.75,3.79H206.3l3.1-2.94V269.76Zm6.72-.77-2.75,4v9.54l2.73,3.61h14.12l3.61-3.1c-.61-4.29.89-8.69-1.23-13C226.07,265.42,220.56,267,214.79,266.29Zm39.25.77c-5.22-1.28-10.7-.21-16.27-.69L235,270.28v9.41l2.76,3.79h14.56l3.1-2.94V269.76Zm24.33,2.44-2-3H260.9c-3.09,3.21-3.13,3.21-2.95,10.28.07,2.63.75,5.08,3,6.7h14.18l3.25-2.92Zm21.1-3H283.9c-3.23,2.59-3,6.23-3,9.82,0,2.83.65,5.39,3,7.2,3.7,0,7.39-.07,11.08,0a8.39,8.39,0,0,0,5.45-1.32c1.73-4.14.41-8.52.91-12.48Zm-57.27-3.41c1.84-2,3-3.68,3-4.93,0-3.55.47-7.17-1.36-10.54a6.68,6.68,0,0,0-4.85-1.58c-3.8.07-7.6,0-10.61,0l-3.5,3.31v11.79l.56-.46c.5.86,1,1.73,1.39,2.39Zm173.64-36.6c-1.85,2-2.95,3.68-3,4.92,0,3.55-.47,7.17,1.37,10.55a6.63,6.63,0,0,0,4.84,1.57c3.8-.07,7.61,0,10.61,0l3.5-3.3V228.39l-.55.45-1.4-2.38Zm-59.5,0a7.9,7.9,0,0,0-3.12,7c.1,2.88,0,5.73,1.5,8.58a9.17,9.17,0,0,0,4.73,1.49c3.8-.14,7.61,0,10.72,0l3.46-3V229l-2-2.51ZM333.64,246H319.72l-3,3v11c.69,1.1,1.34,2.11,1.95,3.06h15.71c.87-1.18,1.82-2.5,2.76-3.79V249.5Zm-46.89,0h-13l-3,3v11l2,3.06h15.71c.87-1.18,1.82-2.5,2.77-3.79,0-2.15.06-4.28,0-6.4C291,250,290.53,247.21,286.75,246Zm43.54-15.77c0,2.59-.16,5.15.07,7.68a7.44,7.44,0,0,0,1.51,4,5.48,5.48,0,0,0,4.41,1.59c3.82-.12,7.65,0,11.31,0l3.12-2.95v-11l-1.94-3H333.05Zm-23.43,53.23c3.73,0,7.4,0,11.07,0,1.91,0,3.83.12,5.75-1.42.19-1.3.53-2.87.63-4.45.11-2-.05-4,.05-5.93a6.3,6.3,0,0,0-2.09-5.17H307.14l-2.36,2v12.76Zm21-15.06v13.26l3,1.8c3.28,0,6.81.08,10.33,0a39.63,39.63,0,0,0,4.68-.64c1.78-2.54,1.36-4.92,1.38-7.22s0-4.77,0-6.6l-2-2.5H329.93Zm22.87,13.47c1.41.58,2.64,1.56,3.82,1.51,4.93-.23,10,1.07,14-.57,2.41-2.6,1.68-5,1.75-7.32s0-4.75,0-6.27l-2-2.73H353.1l-2.35,2Zm80.46-15.43H415.85l-2,2v13.17l3.3,1.93c4.91-.63,10.12.87,15.13-1,2-4.65.57-9.41,1.07-13.67Zm-210-5.38V247.84l-2.88-1.71H204.64l-2.81,2.81v11.41l1.92,2.68h15.39ZM182.35,246l-3.52,3v11.61c.83,1,1.46,1.75,2,2.37h15.41l2-2V247.85L195.1,246Zm248,0c-3.83,0-7.64.07-11.44,0a6.29,6.29,0,0,0-5.08,2.07V260.5l1.94,2.52h15.32l2.24-2V249Zm-272.41,17h14.22l3.15-1.95v-13a6.43,6.43,0,0,0-5.2-2.08c-3.79.09-7.6,0-11,0l-3.3,3.06V261Zm-29.79-16.29c-5-1.54-10.17-.28-15.25-.84l-3,3.22v11.5l2,2.35H127l2.39-2c0-4,.06-7.82,0-11.63C129.33,248.66,128.71,248,128.12,246.77Zm6.78,16.29h14.19l3.29-2c0-4.25.05-8.06,0-11.86,0-.7-.71-1.38-1.21-2.31-4.92-1.83-10.24-.32-14.93-.86l-3.36,3.11v11.76Z"/><path class="cls-3" d="M299.11,336.27a7.79,7.79,0,0,1,4.75,7.35c.09,21,0,42,0,63.06l-3.54,4.43H210.5l-3.64-4.32c0-21.07,0-41.91,0-62.75a8.31,8.31,0,0,1,4.67-7.77Z"/><path class="cls-4" d="M387.33,321.8a14.76,14.76,0,0,0,2.4,0c.37-.06.67-.53,1-.81,1.26,1.16,2.25,2.63,4.33,2.58,4.45-.1,8.9,0,12.82,0l2.43-1.7a14.76,14.76,0,0,0,2.4,0c.37-.06.67-.53,1-.81a6.15,6.15,0,0,0,5.57,2.6c4-.18,8-.05,12-.05l2.86-3.4c.28.86.57,1.72.86,2.62h5v9.13H71.7V323c1.15-1.21,2.88-1.27,4.67-1.25.36,0,.73-.53,1.1-.81l3.1,2.48h23l2.8-3.33v1.7h3.4l2.17,1.59h15.14l2.27-1.59a14.76,14.76,0,0,0,2.4,0c.37-.06.67-.53,1-.81l2,2.44h15.3l2.28-1.59a14.78,14.78,0,0,0,2.4,0c.37-.06.67-.53,1-.81l2,2.44h15.3l2.28-1.59a14.76,14.76,0,0,0,2.4,0c.37-.06.67-.53,1-.81,1.91,2.15,2.76,2.53,5.66,2.55H293.82l2.42-1.7c.84-.33,2.16.79,2.56-.85l2,2.44h15.3l2.28-1.59a14.64,14.64,0,0,0,2.39,0c.37-.06.68-.53,1-.81l2,2.44h15.3l2.28-1.59a14.76,14.76,0,0,0,2.4,0c.37-.06.67-.53,1-.81,1.25,1.16,2.24,2.63,4.32,2.58,4.45-.1,8.9,0,12.82,0l2.43-1.7a14.74,14.74,0,0,0,2.4,0c.37-.06.68-.53,1-.81,1.26,1.16,2.24,2.63,4.32,2.58,4.45-.1,8.9,0,12.82,0Z"/><path class="cls-5" d="M146.42,209.43c-.86-1.17-1.7-1.17-2.56,0L141,206.1H126.57l-3.14,2.48c-.83.32-2.15-.79-2.55.85L118,206.1H103.58l-3.13,2.48c-.84.32-2.15-.79-2.55.85L95,206.1H80.6l-3.13,2.48-5.77-1v-8.23H440v8.07c-2.15.75-4.32,1.57-6.7,1.19l-3.11-2.48H415.7c-2.14.62-1.3,3.22-2.83,4.18v-1.55c-1.19,0-2.4-.15-3.6-.11-.23,0-.44.53-.66.81l-2.89-3.36h-9.31l-2.27,2V220.5c-1.17,0-.84-.91-.84-1.52,0-3.37,0-6.74,0-10.4h-2.56c-1.91-2.16-2.75-2.54-5.65-2.55h-5.63l-2.34,2.09V220.5c-1.16,0-.83-.91-.84-1.52,0-3.37,0-6.74,0-10.4h-2.55l-3.11-2.48H356.11c-2.14.62-1.3,3.22-2.83,4.18v-1.7h-2.56l-3.1-2.48h-14.5c-2.13.62-1.29,3.22-2.83,4.18v-1.7h-2.55l-3.11-2.48H310.11l-2.8,3.33c-.4-1.64-1.72-.53-2.55-.85l-3.11-2.48H287.12c-.94,1.13-1.87,2.23-2.8,3.33-.39-1.64-1.71-.53-2.55-.85l-3.11-2.48H264.14l-2.8,3.33c-.4-1.64-1.72-.53-2.55-.85l-3.11-2.48H241.16l-2.8,3.33c-.4-1.64-1.72-.53-2.56-.85l-3.1-2.48H218.17l-2.8,3.33c-.4-1.64-1.71-.53-2.55-.85l-3.11-2.48H195.19l-2.8,3.33c-.86-1.17-1.7-1.17-2.56,0L187,206.1H172.2l-2.8,3.33c-.85-1.17-1.69-1.17-2.55,0L164,206.1H149.22Z"/><path class="cls-6" d="M296.24,321.8l-2.42,1.7H184.43c-2.9,0-3.75-.4-5.66-2.55V309.88l1.09-2.28,2.17-1.11H294.27l2,2.54V321.8Z"/><path class="cls-6" d="M124.27,288.81v12.1a8.14,8.14,0,0,1-6.88,3.07c-12-.14-24.08-.06-35.47-.06-3.82-1.25-4.68-3.7-4.48-6.88.15-2.39,0-4.8,0-6.46,1.23-4,3.74-4.6,6.89-4.58,12,.1,24.08,0,36.13,0Z"/><path class="cls-6" d="M80.44,283.49l-3-3V269.72l1.12-2.14,2.14-1.1h33.8l2.94,3.16v10.89l-3,3Z"/><path class="cls-6" d="M410.31,280.52l-3,3c-9.31,0-18.64,0-28,0a6.82,6.82,0,0,1-5.58-2.12V268.47l2.6-2c-.43.1-.17,0,.09,0,9.33,0,18.66,0,28,0a30.89,30.89,0,0,1,4.47.62c1.51,1.92,1.45,3.82,1.42,5.74C410.28,275.4,410.31,278,410.31,280.52Z"/><path class="cls-6" d="M406.31,243.48c-7.88,0-15.95,0-24,0a19,19,0,0,1-2.75-.53c-2.9-.47-2.7-3.16-3.15-5-.52-2.14-.22-4.51-.09-6.77.12-2,1.54-3.41,3-4.71h28.08l2.09,2.2v11.88Z"/><path class="cls-7" d="M387.33,300.85c-1.84,2.5-4.3,3.18-7.26,3.11-6.23-.14-12.46,0-18.73,0l-3.81-2.75V289.11c1.84-2.49,4.3-3.18,7.27-3.11,6.22.14,12.46,0,18.72,0l3.81,2.76Z"/><path class="cls-6" d="M80.58,246c6.57,0,13.21,0,19.85,0a36.48,36.48,0,0,1,4.78.64c2.28,4.65.65,9.47,1.31,14.2L104,263H79.36c-3.44-4.28-1.17-9.36-2-13.77Z"/><path class="cls-6" d="M106.41,320.1l-2.8,3.33h-23L77.47,321c0-2.84-.08-5.68,0-8.51a40.71,40.71,0,0,1,.62-4.61l2.61-1.34h22.92l2.76,3.79Z"/><path class="cls-6" d="M409.46,260.93l-2.12,2.12H387.6l-2-3c0-2.28.16-4.7,0-7.09a7.54,7.54,0,0,1,3.06-6.87H406.5c1,1,1.94,2,3,3Z"/><path class="cls-7" d="M334.56,300.9V288.81l3.79-2.77c3.54,0,7.08.1,10.61,0a8.38,8.38,0,0,1,4.18,1.23c1.52.77.64,2.85,1.84,3.88-.38,3.13.73,6.34-.8,9.44-.86,1.73-.62,1.85-3.05,3.37-3.21,0-6.47-.16-9.71.05A7.71,7.71,0,0,1,334.56,300.9Z"/><path class="cls-7" d="M414.1,302.33c-2.24-3.88-.76-8.15-1.29-12,1.15-3.74,3.77-4.5,7.07-4.35,3.11.15,6.23,0,9.27,0,3.57,1.09,4.36,3.72,4.17,7-.13,2.26,0,4.53,0,6.74-1.09,3.56-3.72,4.34-7,4.16a61.52,61.52,0,0,0-6.79,0A8.48,8.48,0,0,1,414.1,302.33Z"/><path class="cls-7" d="M410.31,299.45c-1.24,3.86-3.71,4.66-6.87,4.51s-6.5,0-9.09,0c-3.84-1.25-4.69-3.7-4.5-6.87.15-2.39,0-4.8,0-6.53,1.25-3.86,3.71-4.66,6.88-4.51s6.5,0,9.09,0c3.84,1.25,4.69,3.71,4.49,6.88C410.19,295.31,410.31,297.72,410.31,299.45Z"/><path class="cls-7" d="M329.78,303.25a44.25,44.25,0,0,1-4.48.64c-2.26.12-4.54-.12-6.79.07a7.58,7.58,0,0,1-6.91-3V288.83l3.76-2.79c3.49,0,7,0,10.54,0a5.94,5.94,0,0,1,5,1.94C332.39,292.76,333,297.75,329.78,303.25Z"/><path class="cls-7" d="M309,299.49l-3.64,4.42h-13l-3.78-2.76V289.07a7.54,7.54,0,0,1,6.84-3.07c2.24.21,4.52,0,6.78.07,1.59.08,3.16.42,4.6.63l2.2,4.4Z"/><path class="cls-7" d="M119.89,227.42c1.86,4.2.48,8.3,1,11.43-1.22,4.16-3.79,4.78-6.93,4.66-3.53-.13-7.07,0-10.53,0l-2.88-2.88V229.53c.49-.85,1.1-1.88,1.83-3.13C108.25,227,114.26,225.42,119.89,227.42Z"/><path class="cls-7" d="M233.92,226.46l1.87,3.16v10.9l-3,3h-13c-3.65-1.25-4.6-3.66-4.39-6.85.16-2.4,0-4.81,0-6.86l1.08-2.18c1.09-.39,2.1-1.24,3.61-1.19C224.59,226.55,229.14,226.46,233.92,226.46Z"/><path class="cls-7" d="M269.41,303.92l-3.81-2.75v-12.1a7.69,7.69,0,0,1,6.84-3.07c3.25.21,6.51,0,9.46,0l2.16,1.11,1.11,2.16v11.85l-3.8,2.76Z"/><path class="cls-7" d="M213.25,286l3,3v12.09l-3.81,2.75H200.46l-3.82-2.75V288.8l3.82-2.76Z"/><path class="cls-7" d="M223.44,303.92l-3.81-2.75V288.8l3.81-2.76h12.79l3,3v12.12l-3.81,2.75Z"/><path class="cls-7" d="M259.05,286l3.13,2.95V300.9a7.68,7.68,0,0,1-6.86,3.07c-3-.21-5.94-.05-8.91-.05l-3.78-2.77V289.06a7.69,7.69,0,0,1,6.86-3.06C252.72,286.21,256,286,259.05,286Z"/><path class="cls-6" d="M383.07,250.68V260l-3.34,3H364.51c-3.45-4.22-1.14-9.19-2-13.75l3.67-3.19c3,0,6.64.09,10.3,0C379.47,245.92,381.87,246.62,383.07,250.68Z"/><path class="cls-7" d="M148.42,226.55h16.4a6.32,6.32,0,0,1,2.05,5.12c-.1,2.68,0,5.37,0,7-1.11,4.24-3.51,5-6.53,4.85-3.26-.12-6.52,0-9.67,0-3.57-1.1-4.5-3.66-4.25-7,.11-1.55,0-3.12,0-4.68C146.44,229.41,146.45,229.41,148.42,226.55Z"/><path class="cls-7" d="M171.41,226.47h16.45l2,3c0,2.29-.12,4.7,0,7.1.2,3.17-.66,5.63-4.47,6.88-2.62,0-5.89-.13-9.14,0s-5.6-.75-6.85-4.39c0-2,.12-4.6,0-7.14A7.42,7.42,0,0,1,171.41,226.47Z"/><path class="cls-7" d="M95.07,226.61l2.83,2.83v9.69c-1.26,3.63-3.66,4.54-6.85,4.39-3.53-.17-7.08,0-10.6,0l-2.85-2.85V229.41l1.66-2.8Z"/><path class="cls-7" d="M255.2,243.48H242l-3.54-3.37V229.59l3.36-3.05h14.94a6.66,6.66,0,0,1,2.08,5.64c-.1,2.69,0,5.38,0,8.22Z"/><path class="cls-6" d="M77.47,208.58l3.13-2.48H95l2.88,3.33v9.82L95.14,223H80.75l-2.32-1.15a12.3,12.3,0,0,1-.92-3.1C77.38,215.39,77.47,212,77.47,208.58Z"/><path class="cls-6" d="M100.45,208.58l3.13-2.48H118l2.88,3.33v9.82L118.13,223h-14.4l-2.31-1.15a11.9,11.9,0,0,1-.92-3.1C100.36,215.39,100.45,212,100.45,208.58Z"/><path class="cls-6" d="M123.43,208.58l3.14-2.48H141l2.87,3.33v10.65l-3,3H126.43l-3-3Z"/><path class="cls-7" d="M127.69,300.87v-12l3.79-2.82c2.93,0,5.9.16,8.85,0a7.66,7.66,0,0,1,6.9,3.05v12.09l-3.75,2.78c-2.93,0-5.9-.15-8.85.05A7.71,7.71,0,0,1,127.69,300.87Z"/><path class="cls-7" d="M150.68,288.8l3.81-2.76h11.95l3.81,2.75v12.38l-3.81,2.75H154.49l-3.81-2.75Z"/><path class="cls-6" d="M192.39,209.43l2.8-3.33h14.52l3.11,2.48v11.5l-3,3H195.38l-3-3Z"/><path class="cls-6" d="M215.37,209.43l2.8-3.33H232.7l3.1,2.48c0,2.84.08,5.68,0,8.51a45.44,45.44,0,0,1-.62,4.61L232.54,223H218.13l-2.76-3.79Z"/><path class="cls-6" d="M261.34,209.43l2.8-3.33h14.52l3.11,2.48c0,2.84.08,5.68,0,8.51a45.44,45.44,0,0,1-.62,4.61L278.51,223H264.1l-2.76-3.79Z"/><path class="cls-6" d="M284.32,209.43c.93-1.1,1.86-2.2,2.8-3.33h14.53l3.11,2.48c0,2.84.07,5.68,0,8.51a42.73,42.73,0,0,1-.63,4.61L301.49,223H287.08l-2.76-3.79Z"/><path class="cls-6" d="M307.31,209.43l2.8-3.33h14.52l3.11,2.48c0,2.84.08,5.68,0,8.51a45.44,45.44,0,0,1-.62,4.61L324.48,223H310.06l-2.75-3.79Z"/><path class="cls-7" d="M173.66,289.11c1.84-2.49,4.29-3.27,7.26-3.1s5.66,0,8.51,0l3.81,2.76v12.05c-1.84,2.5-4.29,3.27-7.26,3.11-2.82-.16-5.66,0-8.52,0l-3.8-2.76Z"/><path class="cls-6" d="M353.28,210.28c1.53-1,.69-3.56,2.83-4.18H370.6l3.11,2.48v10.21c.11,1.64-1.13,2.66-1.53,4.1H355.92l-2.64-3.64Z"/><path class="cls-6" d="M339.66,249.06l3-3h13c3.66,1.25,4.62,3.66,4.4,6.85-.15,2.11,0,4.24,0,6.37-1,1.31-1.91,2.62-2.77,3.78H341.77a6.74,6.74,0,0,1-2.15-5.52C339.76,254.69,339.66,251.86,339.66,249.06Z"/><path class="cls-6" d="M139.54,267.7c1.83,4.1.45,8.49,1,12.76l-3.3,3H122.79c-.85-1.18-1.81-2.49-2.76-3.79,0-2.14.16-4.28,0-6.38a7.49,7.49,0,0,1,3.07-6.84c2.78,0,5.62-.08,8.45,0C134.1,266.57,136.79,265.84,139.54,267.7Z"/><path class="cls-6" d="M412.87,210.28c1.53-1,.69-3.56,2.83-4.18h14.49l3.11,2.48c0,3-.11,6,0,8.93a7.19,7.19,0,0,1-1.93,5.38H415.51l-2.64-3.64Z"/><path class="cls-6" d="M163.52,280.37l-3,3.12H146a7.51,7.51,0,0,1-3.06-6.86c.19-2.1,0-4.24,0-6.36l2.77-3.79h14.37l2.35,1.15C164.52,271.6,162.9,276.15,163.52,280.37Z"/><path class="cls-6" d="M295.57,263.06c-.68-1.16-1.23-2.08-1.87-3.15V249l3.11-2.95c3.38,0,6.93.14,10.46,0,3.19-.16,5.59.74,6.85,4.4v8.85l-2.75,3.81Z"/><path class="cls-6" d="M263.76,246c3.79,1.19,4.27,3.94,4.38,6.84.07,2.12,0,4.25,0,6.39-.95,1.3-1.91,2.61-2.76,3.79H249.84l-2.12-2.12V249l3-3Z"/><path class="cls-6" d="M238.36,209.43l2.8-3.33h14.52l3.11,2.48c0,2.84.07,5.68,0,8.51a42.73,42.73,0,0,1-.63,4.61L255.52,223H241.11l-2.75-3.79Z"/><path class="cls-7" d="M128.05,243.48c-4.14-1.21-4.81-3.78-4.64-6.92.13-2.26,0-4.54,0-6.86l1.89-3.24c2.93,0,5.88-.11,8.82,0s5.86-.82,8.76,1.22c2,3.61.46,7.88,1,11.32-1.26,3.81-3.71,4.64-6.89,4.49S130.47,243.48,128.05,243.48Z"/><path class="cls-7" d="M210.94,226.46l1.88,3.17c0,2.19-.07,4.6,0,7,.11,3.1-.41,5.78-5.31,6.85H196.74c-3.64-1.25-4.59-3.66-4.38-6.85.15-2.4,0-4.81,0-6.87l1.08-2.17c1.08-.38,2.09-1.24,3.6-1.19C201.61,226.55,206.15,226.46,210.94,226.46Z"/><path class="cls-6" d="M279.89,226.46c.68,1.16,1.23,2.07,1.87,3.15v10.92l-3.1,2.95c-3.39,0-6.93-.06-10.47,0-3.09.07-5.78-.4-6.85-5.32v-7.91l2.75-3.81Z"/><path class="cls-6" d="M304.76,240.46l-3,3h-13.1c-3.66-1.26-4.62-3.66-4.39-6.85.15-2.11,0-4.24,0-6.37l2.77-3.79h15.56a6.77,6.77,0,0,1,2.14,5.52C304.65,234.82,304.76,237.66,304.76,240.46Z"/><path class="cls-6" d="M327.74,240.28l-2.93,3.18H311.86c-4.09-1.18-4.75-3.76-4.57-6.89.12-2.11,0-4.23,0-6.26.92-1.3,1.77-2.52,2.65-3.75h15.75a6.27,6.27,0,0,1,2.06,5.07C327.66,234.6,327.74,237.57,327.74,240.28Z"/><path class="cls-6" d="M166,270.27c.93-1.29,1.89-2.6,2.75-3.8h14.42l2.15,1.11,1.1,2.15v10.81l-3.12,2.95H168.75L166,279.68Z"/><path class="cls-6" d="M208.07,267.06l1.33,2.7v10.78l-3.1,2.94H191.74L189,279.69v-9.41l2.81-3.91C197.37,266.85,202.85,265.78,208.07,267.06Z"/><path class="cls-6" d="M214.79,266.29c5.77.75,11.28-.87,16.48,1.07,2.12,4.27.62,8.67,1.23,13l-3.61,3.1H214.77L212,279.81v-9.54Z"/><path class="cls-6" d="M254,267.06l1.33,2.7v10.78l-3.1,2.94H237.71L235,279.69v-9.41l2.82-3.91C243.34,266.85,248.82,265.78,254,267.06Z"/><path class="cls-6" d="M278.37,269.5v11l-3.25,2.92H260.94c-2.24-1.62-2.92-4.07-3-6.7-.18-7.07-.14-7.07,2.95-10.28h15.48Z"/><path class="cls-6" d="M299.47,266.47l1.93,3.25c-.5,4,.82,8.34-.91,12.48a8.39,8.39,0,0,1-5.45,1.32c-3.69-.1-7.38,0-11.08,0-2.39-1.81-3-4.37-3-7.2,0-3.59-.25-7.23,3-9.82Z"/><path class="cls-7" d="M242.2,263.06H226.78c-.39-.66-.89-1.53-1.39-2.39l-.56.46V249.34l3.5-3.31c3,0,6.81.05,10.61,0a6.68,6.68,0,0,1,4.85,1.58c1.83,3.37,1.37,7,1.36,10.54C245.15,259.38,244,261.1,242.2,263.06Z"/><path class="cls-7" d="M415.84,226.46h15.41l1.4,2.38.55-.45v11.79l-3.5,3.3c-3,0-6.81,0-10.61,0a6.63,6.63,0,0,1-4.84-1.57c-1.84-3.38-1.37-7-1.37-10.55C412.89,230.14,414,228.42,415.84,226.46Z"/><path class="cls-6" d="M410.31,321.8l-2.43,1.7c-3.92,0-8.37-.07-12.82,0-2.08.05-3.07-1.42-4.33-2.58V310.73c.3-1,.61-2,.91-3l2.36-1.21h14.13c2.26,1.67,2.87,4.11,3,6.74,0,.57,0,1.14,0,1.7a34.73,34.73,0,0,1,0,3.82A20,20,0,0,1,410.31,321.8Z"/><path class="cls-6" d="M434.15,320.1l-2.86,3.4c-4,0-8-.13-12,.05a6.15,6.15,0,0,1-5.57-2.6V309.44l3-3H431.4l2.75,3.81Z"/><path class="cls-7" d="M356.34,226.46h15.32l2,2.51v11.51l-3.46,3c-3.11,0-6.92-.1-10.72,0a9.17,9.17,0,0,1-4.73-1.49c-1.48-2.85-1.4-5.7-1.5-8.58A7.9,7.9,0,0,1,356.34,226.46Z"/><path class="cls-6" d="M333.64,246l3.46,3.47v9.76c-.94,1.29-1.89,2.61-2.76,3.79H318.63c-.61-.95-1.26-2-1.95-3.06V249l3-3Z"/><path class="cls-6" d="M146.42,209.43l2.8-3.33H164l2.88,3.33v10.64l-3,3H149.41l-3-3Z"/><path class="cls-6" d="M169.4,209.43l2.8-3.33H187l2.87,3.33v10.64l-3,3H172.4l-3-3Z"/><path class="cls-6" d="M330.29,210.28c1.54-1,.7-3.56,2.83-4.18h14.5l3.1,2.48v4.26c0,1.41.09,2.84,0,4.25-.12,1.59-.43,3.17-.63,4.61L347.46,223H333.05c-.86-1.19-1.82-2.51-2.76-3.79Z"/><path class="cls-6" d="M286.75,246c3.78,1.18,4.25,3.94,4.37,6.83.08,2.12,0,4.25,0,6.4-.95,1.29-1.9,2.61-2.77,3.79H272.66l-2-3.06V249l3-3Z"/><path class="cls-6" d="M330.29,230.26l2.76-3.8h15.72l1.94,3v11l-3.12,2.95c-3.66,0-7.49-.08-11.31,0a5.48,5.48,0,0,1-4.41-1.59,7.44,7.44,0,0,1-1.51-4C330.13,235.41,330.29,232.85,330.29,230.26Z"/><path class="cls-6" d="M129.39,321.8l-2.27,1.59H112l-2.17-1.59V309.88l1.13-2.31a8.34,8.34,0,0,1,5.14-1.12c3.65.1,7.31,0,11.3,0,.43.58,1,1.37,2,2.76Z"/><path class="cls-6" d="M152.38,321.8l-2.28,1.59H134.8l-2-2.44c0-2.95-.07-5.9,0-8.85a33.22,33.22,0,0,1,.62-4.07c1.69-1.72,3.6-1.58,5.5-1.56,3.78,0,7.56,0,11.45,0l2,2.55V321.8Z"/><path class="cls-6" d="M175.36,321.8l-2.28,1.59h-15.3l-2-2.44V309.88l1.13-2.32a8.66,8.66,0,0,1,5.1-1.12c3.62.12,7.26,0,11.27,0,.59.72,1.34,1.63,2.08,2.55V321.8Z"/><path class="cls-6" d="M318.38,321.8l-2.28,1.59H300.8l-2-2.44V309.88l1.12-2.31a8.35,8.35,0,0,1,5.15-1.12c3.64.1,7.3,0,11.3,0,.42.58,1,1.37,2,2.76Z"/><path class="cls-6" d="M306.86,283.49l-2.08-2.22V268.51l2.36-2h15.13a6.3,6.3,0,0,1,2.09,5.17c-.1,2,.06,4-.05,5.93-.1,1.58-.44,3.15-.63,4.45-1.92,1.54-3.84,1.43-5.75,1.42C314.26,283.47,310.59,283.49,306.86,283.49Z"/><path class="cls-6" d="M327.88,268.43l2.05-1.93h15.36l2,2.5c0,1.83,0,4.22,0,6.6s.4,4.68-1.38,7.22a39.63,39.63,0,0,1-4.68.64c-3.52.11-7.05,0-10.33,0l-3-1.8Z"/><path class="cls-6" d="M350.75,281.9V268.51l2.35-2h15.24l2,2.73c0,1.52.07,3.9,0,6.27s.66,4.72-1.75,7.32c-4,1.64-9,.34-14,.57C353.39,283.46,352.16,282.48,350.75,281.9Z"/><path class="cls-6" d="M341.36,321.8l-2.28,1.59h-15.3l-2-2.44c0-2.95-.07-5.9,0-8.85a33.22,33.22,0,0,1,.62-4.07c1.7-1.72,3.6-1.58,5.5-1.56,3.78,0,7.57,0,11.45,0l2,2.55V321.8Z"/><path class="cls-6" d="M431.21,266.47l2.12,2.43c-.5,4.26.91,9-1.07,13.67-5,1.89-10.22.39-15.13,1l-3.3-1.93V268.49l2-2Z"/><path class="cls-6" d="M364.34,321.8l-2.43,1.7c-3.92,0-8.37-.07-12.82,0-2.08.05-3.07-1.42-4.32-2.58V309.88c.33-.69.67-1.39,1.13-2.32a8.63,8.63,0,0,1,5.09-1.12c3.63.12,7.26,0,11.27,0,.59.72,1.34,1.63,2.08,2.55V321.8Z"/><path class="cls-6" d="M387.33,321.8l-2.44,1.7c-3.92,0-8.37-.07-12.82,0-2.08.05-3.06-1.42-4.32-2.58V309.88l1.13-2.32a8.64,8.64,0,0,1,5.09-1.12c3.63.12,7.26,0,11.28,0l2.08,2.55V321.8Z"/><path class="cls-6" d="M221.19,261.09,219.14,263H203.75l-1.92-2.68V248.94l2.81-2.81h13.67l2.88,1.71Z"/><path class="cls-6" d="M182.35,246H195.1l3.12,1.82v13.21l-2,2H180.82c-.53-.62-1.16-1.37-2-2.37V249.06Z"/><path class="cls-6" d="M430.32,246l3,3V261l-2.24,2H415.74l-1.94-2.52V248.08a6.29,6.29,0,0,1,5.08-2.07C422.68,246.1,426.49,246,430.32,246Z"/><path class="cls-6" d="M157.91,263.06,155.8,261V249.09l3.3-3.06c3.38,0,7.19.07,11,0a6.43,6.43,0,0,1,5.2,2.08v13l-3.15,1.95Z"/><path class="cls-6" d="M128.12,246.77c.59,1.2,1.21,1.89,1.23,2.6.1,3.81,0,7.62,0,11.63L127,263H111.84l-2-2.35v-11.5l3-3.22C118,246.49,123.14,245.23,128.12,246.77Z"/><path class="cls-6" d="M134.9,263.06l-2.07-2.18V249.12l3.36-3.11c4.69.54,10-1,14.93.86.5.93,1.19,1.61,1.21,2.31.1,3.8,0,7.61,0,11.86l-3.29,2Z"/><path class="cls-7" d="M394.14,220.5V208.11l2.27-2h9.31l2.89,3.36v9.82L405.86,223H397Z"/><path class="cls-7" d="M377.11,220.5V208.12l2.34-2.09h5.63c2.9,0,3.74.39,5.65,2.55v11.07c-.48,1.69-.48,1.69-2.08,3.36h-9.5Z"/><path class="cls-4" d="M152.38,321V309c.28.22.81.44.81.67q.08,5.28,0,10.58C153.19,320.51,152.66,320.72,152.38,321Z"/><path class="cls-4" d="M341.36,321V309c.28.22.81.44.81.67q.09,5.28,0,10.58C342.17,320.51,341.64,320.72,341.36,321Z"/><path class="cls-4" d="M364.34,321V309c.29.22.82.44.82.67q.07,5.28,0,10.58C365.16,320.51,364.63,320.72,364.34,321Z"/><path class="cls-4" d="M387.33,321V309c.28.22.81.44.81.67q.09,5.28,0,10.58C388.14,320.51,387.61,320.72,387.33,321Z"/><path class="cls-4" d="M296.24,321V309c.29.22.81.44.82.67q.07,5.28,0,10.58C297.05,320.51,296.53,320.72,296.24,321Z"/><path class="cls-4" d="M175.36,321V309c.29.22.81.44.82.67q.07,5.28,0,10.58C176.17,320.51,175.65,320.72,175.36,321Z"/><path class="cls-5" d="M390.73,219.65V209.43c.29.22.81.44.82.67q.07,4.44,0,8.88C391.54,219.21,391,219.42,390.73,219.65Z"/><path class="cls-4" d="M155.78,309.88V320.1c-.28-.23-.81-.44-.81-.67q-.09-4.44,0-8.88C155,310.32,155.5,310.1,155.78,309.88Z"/><path class="cls-4" d="M178.77,309.88V320.1c-.29-.23-.81-.44-.82-.67q-.07-4.44,0-8.88C178,310.32,178.48,310.1,178.77,309.88Z"/><path class="cls-4" d="M298.8,309.88V320.1c-.29-.23-.81-.44-.82-.67q-.08-4.44,0-8.88C298,310.32,298.51,310.1,298.8,309.88Z"/><path class="cls-4" d="M344.77,309.88V320.1c-.29-.23-.82-.44-.82-.67q-.07-4.44,0-8.88C344,310.32,344.48,310.1,344.77,309.88Z"/><path class="cls-4" d="M367.75,309.88V320.1c-.28-.23-.81-.44-.82-.67q-.07-4.44,0-8.88C366.94,310.32,367.47,310.1,367.75,309.88Z"/><path class="cls-4" d="M109.81,309.88V320.1c-.28-.23-.81-.44-.81-.67q-.09-4.44,0-8.88C109,310.32,109.53,310.1,109.81,309.88Z"/><path class="cls-5" d="M373.71,218.79v-8.51c.14,0,.4,0,.4,0a16.55,16.55,0,0,1,0,8.5S373.85,218.79,373.71,218.79Z"/><path class="cls-4" d="M390.73,310.73v8.51a1.68,1.68,0,0,1-.4,0,16.77,16.77,0,0,1,0-8.5S390.59,310.73,390.73,310.73Z"/><path class="cls-5" d="M350.72,212.84v-2.56C351.89,211.14,351.89,212,350.72,212.84Z"/></g></g></svg>