<svg xmlns="http://www.w3.org/2000/svg" xmlns:xlink="http://www.w3.org/1999/xlink" viewBox="0 0 613.27 767.74"><defs><style>.cls-1{fill:none;}.cls-2{isolation:isolate;}.cls-3{fill:#fb4d3d;}.cls-4{fill:#345995;}.cls-5{clip-path:url(#clip-path);}.cls-6{fill:#fff;}.cls-7{opacity:0.07;mix-blend-mode:multiply;}.cls-8{fill:#34344c;}.cls-9{fill:#2d2d3a;}</style><clipPath id="clip-path" transform="translate(0 85.96)"><path class="cls-1" d="M438,577.45H14.88V0H438a19.58,19.58,0,0,1,19.58,19.57v538.3A19.58,19.58,0,0,1,438,577.45Z"/></clipPath></defs><g class="cls-2"><g id="Layer_2" data-name="Layer 2"><g id="Layer_2-2" data-name="Layer 2"><path class="cls-3" d="M103.22,666.06q-9.82-16.18-19.63-32.39L64,666.06V557.12h39.26Z" transform="translate(0 85.96)"/><path class="cls-3" d="M72.64,612.9h0c-1,0-1.87-1.29-1.87-2.88V590.19c0-1.6.84-2.89,1.87-2.89h0c1,0,1.87,1.29,1.87,2.89V610C74.51,611.61,73.67,612.9,72.64,612.9Z" transform="translate(0 85.96)"/><path class="cls-3" d="M72.71,633.43h0c-1,0-1.86-1.29-1.86-2.88v-9c0-1.59.83-2.88,1.86-2.88h0c1,0,1.87,1.29,1.87,2.88v9C74.58,632.14,73.75,633.43,72.71,633.43Z" transform="translate(0 85.96)"/><path class="cls-4" d="M438,577.45H14.88V0H438a19.58,19.58,0,0,1,19.58,19.57v538.3A19.58,19.58,0,0,1,438,577.45Z" transform="translate(0 85.96)"/><g class="cls-5"><path class="cls-6" d="M348.06,222.59H140.12a6.16,6.16,0,0,1-6.15-6.15V135.16a6.16,6.16,0,0,1,6.15-6.14H348.06a6.14,6.14,0,0,1,6.14,6.14v81.28A6.15,6.15,0,0,1,348.06,222.59Z" transform="translate(0 85.96)"/><g class="cls-7"><path class="cls-8" d="M228.8,651.61C341.85,417.1,319.74,176.78,187.47,60.13,159.57,35.52,103.86-3.78,7.84-16.31L420.25-86l154.65,368c64.26,107.58,46,244.68-41.32,328.19C453.51,686.85,330.4,704,228.8,651.61Z" transform="translate(0 85.96)"/></g></g><path class="cls-6" d="M37.16,34.47a8.13,8.13,0,1,1,8.12-8.13,8.13,8.13,0,0,1-8.12,8.13Z" transform="translate(0 85.96)"/><path class="cls-6" d="M37.16,75.09A8.13,8.13,0,1,1,45.28,67a8.13,8.13,0,0,1-8.12,8.13Z" transform="translate(0 85.96)"/><path class="cls-6" d="M37.16,115.71a8.13,8.13,0,1,1,8.12-8.13,8.13,8.13,0,0,1-8.12,8.13Z" transform="translate(0 85.96)"/><path class="cls-6" d="M37.16,156.33a8.13,8.13,0,1,1,8.12-8.13,8.13,8.13,0,0,1-8.12,8.13Z" transform="translate(0 85.96)"/><path class="cls-6" d="M37.16,197a8.13,8.13,0,1,1,8.12-8.13A8.13,8.13,0,0,1,37.16,197Z" transform="translate(0 85.96)"/><path class="cls-6" d="M37.16,237.57a8.13,8.13,0,1,1,8.12-8.13,8.13,8.13,0,0,1-8.12,8.13Z" transform="translate(0 85.96)"/><path class="cls-6" d="M37.16,278.19a8.13,8.13,0,1,1,8.12-8.13,8.13,8.13,0,0,1-8.12,8.13Z" transform="translate(0 85.96)"/><path class="cls-6" d="M37.16,318.81a8.13,8.13,0,1,1,8.12-8.13,8.13,8.13,0,0,1-8.12,8.13Z" transform="translate(0 85.96)"/><path class="cls-6" d="M37.16,359.43a8.13,8.13,0,1,1,8.12-8.12,8.13,8.13,0,0,1-8.12,8.12Z" transform="translate(0 85.96)"/><path class="cls-6" d="M37.16,400.05a8.13,8.13,0,1,1,8.12-8.12,8.13,8.13,0,0,1-8.12,8.12Z" transform="translate(0 85.96)"/><path class="cls-6" d="M37.16,440.67a8.13,8.13,0,1,1,8.12-8.12,8.13,8.13,0,0,1-8.12,8.12Z" transform="translate(0 85.96)"/><path class="cls-6" d="M37.16,481.29a8.13,8.13,0,1,1,8.12-8.12,8.13,8.13,0,0,1-8.12,8.12Z" transform="translate(0 85.96)"/><path class="cls-6" d="M37.16,521.91a8.13,8.13,0,1,1,8.12-8.12,8.13,8.13,0,0,1-8.12,8.12Z" transform="translate(0 85.96)"/><path class="cls-6" d="M37.16,562.53a8.13,8.13,0,1,1,8.12-8.12,8.13,8.13,0,0,1-8.12,8.12Z" transform="translate(0 85.96)"/><path class="cls-9" d="M36.26,23.46H1.31A1.31,1.31,0,0,1,0,22.15H0a1.31,1.31,0,0,1,1.31-1.31H36.26a1.31,1.31,0,0,1,1.31,1.31h0A1.3,1.3,0,0,1,36.26,23.46Z" transform="translate(0 85.96)"/><path class="cls-9" d="M36.26,31.84H1.31A1.31,1.31,0,0,1,0,30.53H0a1.31,1.31,0,0,1,1.31-1.31H36.26a1.31,1.31,0,0,1,1.31,1.31h0A1.3,1.3,0,0,1,36.26,31.84Z" transform="translate(0 85.96)"/><path class="cls-9" d="M36.26,64.08H1.31A1.31,1.31,0,0,1,0,62.77H0a1.31,1.31,0,0,1,1.31-1.31H36.26a1.31,1.31,0,0,1,1.31,1.31h0A1.3,1.3,0,0,1,36.26,64.08Z" transform="translate(0 85.96)"/><path class="cls-9" d="M36.26,72.46H1.31A1.31,1.31,0,0,1,0,71.15H0a1.31,1.31,0,0,1,1.31-1.31H36.26a1.31,1.31,0,0,1,1.31,1.31h0A1.3,1.3,0,0,1,36.26,72.46Z" transform="translate(0 85.96)"/><path class="cls-9" d="M36.26,104.71H1.31A1.32,1.32,0,0,1,0,103.39H0a1.31,1.31,0,0,1,1.31-1.31H36.26a1.31,1.31,0,0,1,1.31,1.31h0A1.31,1.31,0,0,1,36.26,104.71Z" transform="translate(0 85.96)"/><path class="cls-9" d="M36.26,113.08H1.31A1.31,1.31,0,0,1,0,111.77H0a1.31,1.31,0,0,1,1.31-1.31H36.26a1.31,1.31,0,0,1,1.31,1.31h0A1.3,1.3,0,0,1,36.26,113.08Z" transform="translate(0 85.96)"/><path class="cls-9" d="M36.26,145.33H1.31A1.32,1.32,0,0,1,0,144H0a1.31,1.31,0,0,1,1.31-1.31H36.26A1.31,1.31,0,0,1,37.57,144h0A1.31,1.31,0,0,1,36.26,145.33Z" transform="translate(0 85.96)"/><path class="cls-9" d="M36.26,153.7H1.31A1.31,1.31,0,0,1,0,152.39H0a1.31,1.31,0,0,1,1.31-1.31H36.26a1.31,1.31,0,0,1,1.31,1.31h0A1.3,1.3,0,0,1,36.26,153.7Z" transform="translate(0 85.96)"/><path class="cls-9" d="M36.26,186H1.31A1.32,1.32,0,0,1,0,184.63H0a1.31,1.31,0,0,1,1.31-1.31H36.26a1.31,1.31,0,0,1,1.31,1.31h0A1.31,1.31,0,0,1,36.26,186Z" transform="translate(0 85.96)"/><path class="cls-9" d="M36.26,194.32H1.31A1.31,1.31,0,0,1,0,193H0a1.31,1.31,0,0,1,1.31-1.31H36.26A1.31,1.31,0,0,1,37.57,193h0A1.3,1.3,0,0,1,36.26,194.32Z" transform="translate(0 85.96)"/><path class="cls-9" d="M36.26,226.57H1.31A1.32,1.32,0,0,1,0,225.25H0a1.31,1.31,0,0,1,1.31-1.31H36.26a1.31,1.31,0,0,1,1.31,1.31h0A1.31,1.31,0,0,1,36.26,226.57Z" transform="translate(0 85.96)"/><path class="cls-9" d="M36.26,234.94H1.31A1.31,1.31,0,0,1,0,233.63H0a1.31,1.31,0,0,1,1.31-1.31H36.26a1.31,1.31,0,0,1,1.31,1.31h0A1.3,1.3,0,0,1,36.26,234.94Z" transform="translate(0 85.96)"/><path class="cls-9" d="M36.26,267.19H1.31A1.31,1.31,0,0,1,0,265.88H0a1.32,1.32,0,0,1,1.31-1.32H36.26a1.31,1.31,0,0,1,1.31,1.32h0A1.31,1.31,0,0,1,36.26,267.19Z" transform="translate(0 85.96)"/><path class="cls-9" d="M36.26,275.56H1.31A1.31,1.31,0,0,1,0,274.25H0a1.31,1.31,0,0,1,1.31-1.31H36.26a1.31,1.31,0,0,1,1.31,1.31h0A1.3,1.3,0,0,1,36.26,275.56Z" transform="translate(0 85.96)"/><path class="cls-9" d="M36.26,307.81H1.31A1.31,1.31,0,0,1,0,306.5H0a1.32,1.32,0,0,1,1.31-1.32H36.26a1.31,1.31,0,0,1,1.31,1.32h0A1.31,1.31,0,0,1,36.26,307.81Z" transform="translate(0 85.96)"/><path class="cls-9" d="M36.26,316.19H1.31A1.32,1.32,0,0,1,0,314.87H0a1.31,1.31,0,0,1,1.31-1.31H36.26a1.31,1.31,0,0,1,1.31,1.31h0A1.31,1.31,0,0,1,36.26,316.19Z" transform="translate(0 85.96)"/><path class="cls-9" d="M36.26,348.43H1.31A1.31,1.31,0,0,1,0,347.12H0a1.32,1.32,0,0,1,1.31-1.32H36.26a1.31,1.31,0,0,1,1.31,1.32h0A1.31,1.31,0,0,1,36.26,348.43Z" transform="translate(0 85.96)"/><path class="cls-9" d="M36.26,356.81H1.31A1.32,1.32,0,0,1,0,355.49H0a1.31,1.31,0,0,1,1.31-1.31H36.26a1.31,1.31,0,0,1,1.31,1.31h0A1.31,1.31,0,0,1,36.26,356.81Z" transform="translate(0 85.96)"/><path class="cls-9" d="M36.26,389.05H1.31A1.31,1.31,0,0,1,0,387.74H0a1.32,1.32,0,0,1,1.31-1.32H36.26a1.31,1.31,0,0,1,1.31,1.32h0A1.31,1.31,0,0,1,36.26,389.05Z" transform="translate(0 85.96)"/><path class="cls-9" d="M36.26,397.43H1.31A1.32,1.32,0,0,1,0,396.11H0a1.31,1.31,0,0,1,1.31-1.31H36.26a1.31,1.31,0,0,1,1.31,1.31h0A1.31,1.31,0,0,1,36.26,397.43Z" transform="translate(0 85.96)"/><path class="cls-9" d="M36.26,429.67H1.31A1.31,1.31,0,0,1,0,428.36H0a1.31,1.31,0,0,1,1.31-1.31H36.26a1.3,1.3,0,0,1,1.31,1.31h0A1.31,1.31,0,0,1,36.26,429.67Z" transform="translate(0 85.96)"/><path class="cls-9" d="M36.26,438.05H1.31A1.32,1.32,0,0,1,0,436.73H0a1.31,1.31,0,0,1,1.31-1.31H36.26a1.31,1.31,0,0,1,1.31,1.31h0A1.31,1.31,0,0,1,36.26,438.05Z" transform="translate(0 85.96)"/><path class="cls-9" d="M36.26,470.29H1.31A1.31,1.31,0,0,1,0,469H0a1.31,1.31,0,0,1,1.31-1.31H36.26A1.3,1.3,0,0,1,37.57,469h0A1.31,1.31,0,0,1,36.26,470.29Z" transform="translate(0 85.96)"/><path class="cls-9" d="M36.26,478.67H1.31A1.31,1.31,0,0,1,0,477.36H0A1.32,1.32,0,0,1,1.31,476H36.26a1.31,1.31,0,0,1,1.31,1.32h0A1.31,1.31,0,0,1,36.26,478.67Z" transform="translate(0 85.96)"/><path class="cls-9" d="M36.26,510.91H1.31A1.31,1.31,0,0,1,0,509.6H0a1.31,1.31,0,0,1,1.31-1.31H36.26a1.3,1.3,0,0,1,1.31,1.31h0A1.31,1.31,0,0,1,36.26,510.91Z" transform="translate(0 85.96)"/><path class="cls-9" d="M36.26,519.29H1.31A1.31,1.31,0,0,1,0,518H0a1.32,1.32,0,0,1,1.31-1.32H36.26A1.31,1.31,0,0,1,37.57,518h0A1.31,1.31,0,0,1,36.26,519.29Z" transform="translate(0 85.96)"/><path class="cls-9" d="M36.26,551.53H1.31A1.31,1.31,0,0,1,0,550.22H0a1.31,1.31,0,0,1,1.31-1.31H36.26a1.3,1.3,0,0,1,1.31,1.31h0A1.31,1.31,0,0,1,36.26,551.53Z" transform="translate(0 85.96)"/><path class="cls-9" d="M36.26,559.91H1.31A1.31,1.31,0,0,1,0,558.6H0a1.32,1.32,0,0,1,1.31-1.32H36.26a1.31,1.31,0,0,1,1.31,1.32h0A1.31,1.31,0,0,1,36.26,559.91Z" transform="translate(0 85.96)"/></g></g></g></svg>