<svg xmlns="http://www.w3.org/2000/svg" viewBox="0 0 340.21 324.47"><defs><style>.cls-1{fill:#dda172;}.cls-2{fill:#345995;}.cls-3{fill:#fb4d3d;}.cls-4{fill:#ffd467;}.cls-5{fill:#849b61;}</style></defs><g id="Layer_2" data-name="Layer 2"><g id="Layer_2-2" data-name="Layer 2"><path class="cls-1" d="M306.41,34.57C245.3-32.91,133.5,12.65,82.07,50.94,41.45,81.19-8.36,141.78,1.19,202.66c3.89,24.79,18.3,53.86,33.94,54.61,18.91.91,30.48-40,66.43-51.58,14.66-4.72,20.29-.38,21.62.84,3.56,3.25,5.59,8.72,5.1,16.61-.32,16.58-11.82,20.63-18.77,39.44-4.38,11.84-5,27.89-.12,38.3,12.88,27.68,70.61,28,108.43,16.32,48-14.8,75.63-52.47,86.65-69.79C353.19,173.79,350.41,83.15,306.41,34.57ZM227.72,243.43c-6.28,11.43-18.23,16.53-26.69,11.4s-10.23-18.56-3.95-30,18.23-16.54,26.7-11.41S234,232,227.72,243.43Z"/><path d="M277.84,55.49a12,12,0,0,0-12.83,5c-4.15,6.27-2.33,15.89,2.05,21.48,5.74,7.32,14.46,5.84,18.42,5.17,1.36-.23,13.28-2.4,13.93-9.52.54-5.87-6.9-11.84-15-18.32C281.36,56.82,279.71,55.93,277.84,55.49Z"/><path class="cls-2" d="M102.82,69.12a12.06,12.06,0,0,0,1.35,13.7c4.92,5.68,14.68,6.52,21.23,3.8,8.61-3.57,9.53-12.35,9.94-16.36.15-1.36,1.27-13.43-5.42-16-5.51-2.1-13.26,3.47-21.68,9.51C105.05,66.08,103.75,67.44,102.82,69.12Z"/><path class="cls-3" d="M173.69,33c-10.58,3.66-15.09,20-10,26.55,4.09,5.29,14,3.87,20,.91,4.69-2.32,12.46-8.33,11.71-15.56C194.52,36.58,182.74,29.86,173.69,33Z"/><path class="cls-4" d="M60,92c-5.39,4-10.55,12.84-8.51,21.44,2.08,8.78,10.35,11.85,11.64,12.33,13.22,4.91,27.74-8.44,26.87-12.33-.7-3.13-11.44-.39-13-5.36-1.4-4.48,6.54-9.31,5.37-13.94C81,88.89,68.58,85.52,60,92Z"/><path class="cls-5" d="M219.82,42.76c-4-7.52,2.9-17.83,14-19.3,5.8-.78,13,.84,16.49,3.94,3.17,2.83,1.06,5,1.9,11.82,1.12,9.13,5.69,11.6,3.17,13.39C250.52,56.05,225.38,53.08,219.82,42.76Z"/></g></g></svg>